<svg xmlns="http://www.w3.org/2000/svg" viewBox="0 0 911.65 470.53"><g id="Layer_2" data-name="Layer 2"><g id="Layer_1-2" data-name="Layer 1"><path d="M54.54,235.39c0,1.81,6.17-2.83,18,8.49L34.73,282.73C12.09,260.86,0,238.22,0,235.39Zm18,8.49a678,678,0,0,0,145.61,107l-26,47.6A729.76,729.76,0,0,1,34.73,282.73Zm145.61,107c66.37,36,149,65.35,241.82,65.35v54.28c-103.16,0-194.49-32.41-267.81-72ZM460,416.25c120.92,0,259.84-49.91,404.93-199.64L904,254.17C746.83,416.51,594,470.53,460,470.53ZM884.46,235.39l-19.55-18.78A27.11,27.11,0,0,1,904,254.17Zm-19.55,18.78C719.82,104.45,580.9,54.54,460,54.54V0C594,0,746.83,54.28,904,216.61ZM460,54.54c-92.87,0-175.45,29.07-241.82,65.34l-26-47.59C265.49,32.41,356.82,0,460,0ZM218.16,119.88A678.92,678.92,0,0,0,72.55,226.65L34.73,187.8c30.36-29.33,84.9-76.15,157.44-115.51ZM72.55,226.65c-11.84,11.32-18,6.94-18,8.74H0c0-2.83,12.09-25.72,34.73-47.59Z"/><path d="M455.87,375.6c77.18,0,140.2-63,140.2-140.21,0-77.43-63-140.46-140.2-140.46S315.66,158,315.66,235.39c0,77.18,63,140.21,140.21,140.21Z"/></g></g></svg>