<svg xmlns="http://www.w3.org/2000/svg" viewBox="0 0 314.6 169.45"><g id="Layer_2" data-name="Layer 2"><g id="Object"><path d="M239.8,160.31a4,4,0,0,1-8,0V77.64H200.64a4,4,0,0,1-2.93-6.72L252.52,2.63a4,4,0,0,1,5.61-.6,4.06,4.06,0,0,1,.65.66l54.94,68.45a4,4,0,0,1-.61,5.61,3.92,3.92,0,0,1-2.5.88H279.45V129a4,4,0,0,1-8,0V73.64a4,4,0,0,1,4-4h26.84L255.63,11.51,209,69.64H235.8a4,4,0,0,1,4,4v86.67Z" style="fill:#474747;fill-rule:evenodd"/><path d="M23.83,140.3a4,4,0,0,0,4,4h184a4,4,0,0,0,2.94-6.7L149.54,67l-.23-.23a4,4,0,0,0-5.64.23L101,113.21,77.14,87.4l-.24-.24a4,4,0,0,0-5.64.24l-46.19,50A4,4,0,0,0,23.83,140.3Zm80.08-18.51h0L146.6,75.58l29.68,32.12,26.41,28.6H90.52ZM74.2,96,94.45,117.9l1.09,1.19-5,5.36L79.65,136.3H37Z" style="fill:#474747"/><path d="M231.65,111.64v49.81H8V8H153a4,4,0,1,0,0-8H4A4,4,0,0,0,0,4V165.45a4,4,0,0,0,4,4H235.65a4,4,0,0,0,4-4V111.64Z" style="fill:#474747"/><path d="M176.6,8h15a4,4,0,0,0,0-8h-15a4,4,0,0,0,0,8Z" style="fill:#474747"/><path d="M63.31,68.39a24.64,24.64,0,0,0,17.47-7.24l0,0a24.7,24.7,0,0,0,0-34.94l0,0a24.7,24.7,0,0,0-34.94,0l0,0a24.7,24.7,0,0,0,0,34.94l0,0A24.64,24.64,0,0,0,63.31,68.39ZM51.47,31.82a16.78,16.78,0,1,1-4.89,11.84A16.71,16.71,0,0,1,51.47,31.82Z" style="fill:#474747"/></g></g></svg>