<svg xmlns="http://www.w3.org/2000/svg" viewBox="0 0 1024 1023.98"><g id="Layer_2" data-name="Layer 2"><g id="Layer_1-2" data-name="Layer 1"><path d="M407.08,814.16C182.62,814.16,0,631.54,0,407.08S182.62,0,407.08,0,814.16,182.62,814.16,407.08,631.54,814.16,407.08,814.16Zm0-723.66c-174.56,0-316.58,142-316.58,316.58s142,316.58,316.58,316.58,316.58-142,316.58-316.58S581.64,90.5,407.08,90.5Z"/><path d="M1010.75,1010.73h0a45.27,45.27,0,0,1-64,0L661,725a409.22,409.22,0,0,0,64-64l285.73,285.72A45.25,45.25,0,0,1,1010.75,1010.73Z"/></g></g></svg>