<svg xmlns="http://www.w3.org/2000/svg" viewBox="0 0 98.08 121.43"><g id="Layer_2" data-name="Layer 2"><g id="Layer_1-2" data-name="Layer 1"><path d="M74.93,121.43H23.15A16.44,16.44,0,0,1,6.73,105V33.43A4.24,4.24,0,0,1,11,29.19H87.11a4.24,4.24,0,0,1,4.24,4.24V105A16.44,16.44,0,0,1,74.93,121.43ZM15.2,37.67V105a8,8,0,0,0,8,7.94H74.93A8,8,0,0,0,82.88,105V37.67Z"/><path d="M93.84,37.67H4.24A4.24,4.24,0,0,1,0,33.43v-6A14.53,14.53,0,0,1,14.52,13h69A14.53,14.53,0,0,1,98.08,27.46v6A4.24,4.24,0,0,1,93.84,37.67ZM8.48,29.19H89.6V27.46a6,6,0,0,0-6-6h-69a6,6,0,0,0-6,6Z"/><path d="M64.52,21.42h-31a4.24,4.24,0,0,1-4.24-4.24V13.25A13.26,13.26,0,0,1,42.57,0H55.51A13.26,13.26,0,0,1,68.76,13.25v3.93A4.24,4.24,0,0,1,64.52,21.42ZM37.8,13H60.28a4.78,4.78,0,0,0-4.77-4.47H42.57A4.78,4.78,0,0,0,37.8,13Z"/><path d="M31.74,99.8a4.24,4.24,0,0,1-4.24-4.24V56.45a4.24,4.24,0,1,1,8.48,0V95.56A4.24,4.24,0,0,1,31.74,99.8Z"/><path d="M49,99.8a4.24,4.24,0,0,1-4.24-4.24V56.45a4.24,4.24,0,1,1,8.48,0V95.56A4.24,4.24,0,0,1,49,99.8Z"/><path d="M66.34,99.8a4.24,4.24,0,0,1-4.24-4.24V56.45a4.24,4.24,0,1,1,8.48,0V95.56A4.24,4.24,0,0,1,66.34,99.8Z"/></g></g></svg>