<svg xmlns="http://www.w3.org/2000/svg" viewBox="0 0 1507.55 1507.55"><g id="Layer_2" data-name="Layer 2"><g id="Layer_1-2" data-name="Layer 1"><path d="M753.78,1507.55C338.14,1507.55,0,1169.41,0,753.78S338.14,0,753.78,0s753.77,338.14,753.77,753.78S1169.41,1507.55,753.78,1507.55Zm0-1373.16c-341.53,0-619.39,277.86-619.39,619.39s277.86,619.38,619.39,619.38,619.38-277.85,619.38-619.38S1095.31,134.39,753.78,134.39Z"/><path d="M499.66,1085.75A67.2,67.2,0,0,1,452.14,971L981.7,441.48a67.2,67.2,0,1,1,95,95L547.17,1066.07A67,67,0,0,1,499.66,1085.75Z"/><path d="M1029.22,1078a67,67,0,0,1-47.52-19.68L452.14,528.77a67.2,67.2,0,0,1,95-95L1076.73,963.3A67.2,67.2,0,0,1,1029.22,1078Z"/></g></g></svg>